<svg width="22" height="22" viewBox="0 0 22 22" fill="none" xmlns="http://www.w3.org/2000/svg">
<g clip-path="url(#clip0_604_8024)">
<path d="M3.91276 0C3.26505 0 2.66336 0.321621 2.30393 0.861051L0.541562 3.50466C0.466281 3.61741 0.430145 3.74722 0.370117 3.86723H10.3557V0H3.91276Z" fill="#BDBDBD"/>
<path d="M21.4587 3.50462L19.6963 0.861051C19.3369 0.321621 18.6922 0 18.0445 0H11.6445V3.86719H21.6301C21.5701 3.74722 21.534 3.61741 21.4587 3.50462Z" fill="#BDBDBD"/>
<path d="M21.9799 5.15625H0.0200664C0.0180898 5.20253 0 5.24571 0 5.2922V20.0664C0 21.1326 0.867367 22 1.93359 22H20.0664C21.1326 22 22 21.1326 22 20.0664V5.2922C22 5.24571 21.9819 5.20253 21.9799 5.15625ZM13.5781 11.6016H8.42188C7.35565 11.6016 6.48828 10.7342 6.48828 9.66797C6.48828 8.60174 7.35565 7.73438 8.42188 7.73438H13.5781C14.6444 7.73438 15.5117 8.60174 15.5117 9.66797C15.5117 10.7342 14.6444 11.6016 13.5781 11.6016Z" fill="#BDBDBD"/>
</g>
<defs>
<clipPath id="clip0_604_8024">
<rect width="22" height="22" fill="white"/>
</clipPath>
</defs>
</svg>
