<svg width="90" height="14" viewBox="0 0 90 14" fill="none" xmlns="http://www.w3.org/2000/svg">
<g clip-path="url(#clip0_604_7534)">
<path d="M7.37844 0.824128L9.19629 4.50744L13.2611 5.09808C13.7236 5.16527 13.9083 5.73372 13.5736 6.05999L10.6323 8.92701L11.3266 12.9754C11.4056 13.436 10.9221 13.7873 10.5084 13.5698L6.87273 11.6585L3.23709 13.5698C2.82339 13.7873 2.33984 13.436 2.41887 12.9754L3.11321 8.92701L0.171889 6.05997C-0.162813 5.73369 0.0218921 5.1653 0.484446 5.09806L4.54922 4.50741L6.36703 0.824128C6.57391 0.404978 7.17157 0.404978 7.37844 0.824128Z" fill="url(#paint0_linear_604_7534)"/>
<path d="M9.19653 4.50743L7.37874 0.824121C7.27531 0.61456 7.07418 0.509766 6.87305 0.509766V7.48322L9.19653 4.50743Z" fill="url(#paint1_linear_604_7534)"/>
<path d="M10.6326 8.92689L13.5739 6.05983C13.739 5.89888 13.7775 5.67906 13.7188 5.4895L6.87305 7.48308L10.6326 8.92689Z" fill="url(#paint2_linear_604_7534)"/>
<path d="M11.1043 13.5256L6.87305 7.48315V11.6584L10.5087 13.5698C10.7163 13.6789 10.9414 13.6448 11.1043 13.5256Z" fill="url(#paint3_linear_604_7534)"/>
<path d="M6.87257 7.48315L3.11303 8.92697L2.41871 12.9753C2.37934 13.2048 2.47967 13.4071 2.64135 13.5256L6.87257 7.48315Z" fill="url(#paint4_linear_604_7534)"/>
<path d="M0.0263672 5.48979L6.87214 7.48334L4.54863 4.50757L0.483849 5.09824C0.249485 5.13228 0.0866561 5.29508 0.0263672 5.48979Z" fill="url(#paint5_linear_604_7534)"/>
<path d="M3.11305 8.92688L0.171728 6.05983C0.00661848 5.89888 -0.0319009 5.67907 0.0268042 5.4895L6.87256 7.48306L3.11305 8.92688Z" fill="url(#paint6_linear_604_7534)"/>
</g>
<g clip-path="url(#clip1_604_7534)">
<path d="M45.437 0.824128L47.2549 4.50744L51.3197 5.09808C51.7822 5.16527 51.9669 5.73372 51.6322 6.05999L48.6909 8.92701L49.3852 12.9754C49.4642 13.436 48.9807 13.7873 48.567 13.5698L44.9313 11.6585L41.2957 13.5698C40.882 13.7873 40.3984 13.436 40.4775 12.9754L41.1718 8.92701L38.2305 6.05997C37.8958 5.73369 38.0805 5.1653 38.543 5.09806L42.6078 4.50741L44.4256 0.824128C44.6325 0.404978 45.2302 0.404978 45.437 0.824128Z" fill="url(#paint7_linear_604_7534)"/>
<path d="M47.2551 4.50743L45.4373 0.824121C45.3339 0.61456 45.1328 0.509766 44.9316 0.509766V7.48322L47.2551 4.50743Z" fill="url(#paint8_linear_604_7534)"/>
<path d="M48.6912 8.92689L51.6325 6.05983C51.7976 5.89888 51.8361 5.67906 51.7774 5.4895L44.9316 7.48308L48.6912 8.92689Z" fill="url(#paint9_linear_604_7534)"/>
<path d="M49.1629 13.5256L44.9316 7.48315V11.6584L48.5673 13.5698C48.7749 13.6789 49 13.6448 49.1629 13.5256Z" fill="url(#paint10_linear_604_7534)"/>
<path d="M44.9312 7.48315L41.1716 8.92697L40.4773 12.9753C40.4379 13.2048 40.5383 13.4071 40.6999 13.5256L44.9312 7.48315Z" fill="url(#paint11_linear_604_7534)"/>
<path d="M38.085 5.48979L44.9307 7.48334L42.6072 4.50757L38.5424 5.09824C38.3081 5.13228 38.1452 5.29508 38.085 5.48979Z" fill="url(#paint12_linear_604_7534)"/>
<path d="M41.1716 8.92688L38.2303 6.05983C38.0652 5.89888 38.0267 5.67907 38.0854 5.4895L44.9312 7.48306L41.1716 8.92688Z" fill="url(#paint13_linear_604_7534)"/>
</g>
<g clip-path="url(#clip2_604_7534)">
<path d="M83.4966 0.824128L85.3145 4.50744L89.3792 5.09808C89.8418 5.16527 90.0265 5.73372 89.6918 6.05999L86.7504 8.92701L87.4448 12.9754C87.5238 13.436 87.0403 13.7873 86.6266 13.5698L82.9909 11.6585L79.3553 13.5698C78.9416 13.7873 78.458 13.436 78.537 12.9754L79.2314 8.92701L76.2901 6.05997C75.9554 5.73369 76.1401 5.1653 76.6026 5.09806L80.6674 4.50741L82.4852 0.824128C82.6921 0.404978 83.2897 0.404978 83.4966 0.824128Z" fill="url(#paint14_linear_604_7534)"/>
<path d="M85.3147 4.50743L83.4969 0.824121C83.3935 0.61456 83.1923 0.509766 82.9912 0.509766V7.48322L85.3147 4.50743Z" fill="url(#paint15_linear_604_7534)"/>
<path d="M86.7507 8.92689L89.692 6.05983C89.8571 5.89888 89.8957 5.67906 89.837 5.4895L82.9912 7.48308L86.7507 8.92689Z" fill="url(#paint16_linear_604_7534)"/>
<path d="M87.2224 13.5256L82.9912 7.48315V11.6584L86.6268 13.5698C86.8344 13.6789 87.0596 13.6448 87.2224 13.5256Z" fill="url(#paint17_linear_604_7534)"/>
<path d="M82.9907 7.48315L79.2312 8.92697L78.5369 12.9753C78.4975 13.2048 78.5978 13.4071 78.7595 13.5256L82.9907 7.48315Z" fill="url(#paint18_linear_604_7534)"/>
<path d="M76.1445 5.48979L82.9903 7.48334L80.6668 4.50757L76.602 5.09824C76.3676 5.13228 76.2048 5.29508 76.1445 5.48979Z" fill="url(#paint19_linear_604_7534)"/>
<path d="M79.2312 8.92688L76.2899 6.05983C76.1248 5.89888 76.0863 5.67907 76.145 5.4895L82.9907 7.48306L79.2312 8.92688Z" fill="url(#paint20_linear_604_7534)"/>
</g>
<g clip-path="url(#clip3_604_7534)">
<path d="M26.4077 0.824128L28.2256 4.50744L32.2904 5.09808C32.7529 5.16527 32.9376 5.73372 32.6029 6.05999L29.6616 8.92701L30.3559 12.9754C30.4349 13.436 29.9514 13.7873 29.5377 13.5698L25.902 11.6585L22.2664 13.5698C21.8527 13.7873 21.3691 13.436 21.4482 12.9754L22.1425 8.92701L19.2012 6.05997C18.8665 5.73369 19.0512 5.1653 19.5137 5.09806L23.5785 4.50741L25.3963 0.824128C25.6032 0.404978 26.2009 0.404978 26.4077 0.824128Z" fill="url(#paint21_linear_604_7534)"/>
<path d="M28.2258 4.50743L26.408 0.824121C26.3046 0.61456 26.1035 0.509766 25.9023 0.509766V7.48322L28.2258 4.50743Z" fill="url(#paint22_linear_604_7534)"/>
<path d="M29.6619 8.92689L32.6032 6.05983C32.7683 5.89888 32.8068 5.67906 32.7481 5.4895L25.9023 7.48308L29.6619 8.92689Z" fill="url(#paint23_linear_604_7534)"/>
<path d="M30.1336 13.5256L25.9023 7.48315V11.6584L29.538 13.5698C29.7456 13.6789 29.9707 13.6448 30.1336 13.5256Z" fill="url(#paint24_linear_604_7534)"/>
<path d="M25.9019 7.48315L22.1423 8.92697L21.448 12.9753C21.4086 13.2048 21.509 13.4071 21.6706 13.5256L25.9019 7.48315Z" fill="url(#paint25_linear_604_7534)"/>
<path d="M19.0566 5.48979L25.9024 7.48334L23.5789 4.50757L19.5141 5.09824C19.2798 5.13228 19.1169 5.29508 19.0566 5.48979Z" fill="url(#paint26_linear_604_7534)"/>
<path d="M22.1423 8.92688L19.201 6.05983C19.0359 5.89888 18.9974 5.67907 19.0561 5.4895L25.9019 7.48306L22.1423 8.92688Z" fill="url(#paint27_linear_604_7534)"/>
</g>
<g clip-path="url(#clip4_604_7534)">
<path d="M64.4673 0.824128L66.2852 4.50744L70.3499 5.09808C70.8125 5.16527 70.9972 5.73372 70.6625 6.05999L67.7211 8.92701L68.4155 12.9754C68.4945 13.436 68.011 13.7873 67.5973 13.5698L63.9616 11.6585L60.326 13.5698C59.9123 13.7873 59.4287 13.436 59.5077 12.9754L60.2021 8.92701L57.2608 6.05997C56.9261 5.73369 57.1108 5.1653 57.5733 5.09806L61.6381 4.50741L63.4559 0.824128C63.6628 0.404978 64.2604 0.404978 64.4673 0.824128Z" fill="url(#paint28_linear_604_7534)"/>
<path d="M66.2854 4.50743L64.4676 0.824121C64.3642 0.61456 64.163 0.509766 63.9619 0.509766V7.48322L66.2854 4.50743Z" fill="url(#paint29_linear_604_7534)"/>
<path d="M67.7214 8.92689L70.6627 6.05983C70.8278 5.89888 70.8664 5.67906 70.8077 5.4895L63.9619 7.48308L67.7214 8.92689Z" fill="url(#paint30_linear_604_7534)"/>
<path d="M68.1931 13.5256L63.9619 7.48315V11.6584L67.5975 13.5698C67.8052 13.6789 68.0303 13.6448 68.1931 13.5256Z" fill="url(#paint31_linear_604_7534)"/>
<path d="M63.9614 7.48315L60.2019 8.92697L59.5076 12.9753C59.4682 13.2048 59.5685 13.4071 59.7302 13.5256L63.9614 7.48315Z" fill="url(#paint32_linear_604_7534)"/>
<path d="M57.1162 5.48979L63.962 7.48334L61.6385 4.50757L57.5737 5.09824C57.3393 5.13228 57.1765 5.29508 57.1162 5.48979Z" fill="url(#paint33_linear_604_7534)"/>
<path d="M60.2019 8.92688L57.2606 6.05983C57.0955 5.89888 57.057 5.67907 57.1157 5.4895L63.9614 7.48306L60.2019 8.92688Z" fill="url(#paint34_linear_604_7534)"/>
</g>
<defs>
<linearGradient id="paint0_linear_604_7534" x1="6.87296" y1="2.04058" x2="6.87296" y2="17.205" gradientUnits="userSpaceOnUse">
<stop stop-color="#FFCF95"/>
<stop offset="0.427" stop-color="#FFC954"/>
<stop offset="1" stop-color="#FFC200"/>
</linearGradient>
<linearGradient id="paint1_linear_604_7534" x1="10.4352" y1="3.99613" x2="5.85104" y2="3.99613" gradientUnits="userSpaceOnUse">
<stop stop-color="#FFC200" stop-opacity="0"/>
<stop offset="0.203" stop-color="#FFBB00" stop-opacity="0.203"/>
<stop offset="0.499" stop-color="#FFA700" stop-opacity="0.499"/>
<stop offset="0.852" stop-color="#FF8800" stop-opacity="0.852"/>
<stop offset="1" stop-color="#FF7800"/>
</linearGradient>
<linearGradient id="paint2_linear_604_7534" x1="11.2183" y1="11.0195" x2="10.0043" y2="5.04094" gradientUnits="userSpaceOnUse">
<stop stop-color="#FFC200" stop-opacity="0"/>
<stop offset="0.203" stop-color="#FFBB00" stop-opacity="0.203"/>
<stop offset="0.499" stop-color="#FFA700" stop-opacity="0.499"/>
<stop offset="0.852" stop-color="#FF8800" stop-opacity="0.852"/>
<stop offset="1" stop-color="#FF7800"/>
</linearGradient>
<linearGradient id="paint3_linear_604_7534" x1="5.33165" y1="14.1615" x2="10.0865" y2="9.40669" gradientUnits="userSpaceOnUse">
<stop stop-color="#FFC200" stop-opacity="0"/>
<stop offset="0.203" stop-color="#FFBB00" stop-opacity="0.203"/>
<stop offset="0.499" stop-color="#FFA700" stop-opacity="0.499"/>
<stop offset="0.852" stop-color="#FF8800" stop-opacity="0.852"/>
<stop offset="1" stop-color="#FF7800"/>
</linearGradient>
<linearGradient id="paint4_linear_604_7534" x1="1.94044" y1="8.14857" x2="5.44514" y2="11.0806" gradientUnits="userSpaceOnUse">
<stop stop-color="#FFC200" stop-opacity="0"/>
<stop offset="0.203" stop-color="#FFBB00" stop-opacity="0.203"/>
<stop offset="0.499" stop-color="#FFA700" stop-opacity="0.499"/>
<stop offset="0.852" stop-color="#FF8800" stop-opacity="0.852"/>
<stop offset="1" stop-color="#FF7800"/>
</linearGradient>
<linearGradient id="paint5_linear_604_7534" x1="4.56726" y1="3.31229" x2="3.14707" y2="7.34383" gradientUnits="userSpaceOnUse">
<stop stop-color="#FFC200" stop-opacity="0"/>
<stop offset="0.203" stop-color="#FFBB00" stop-opacity="0.203"/>
<stop offset="0.499" stop-color="#FFA700" stop-opacity="0.499"/>
<stop offset="0.852" stop-color="#FF8800" stop-opacity="0.852"/>
<stop offset="1" stop-color="#FF7800"/>
</linearGradient>
<linearGradient id="paint6_linear_604_7534" x1="9.91369" y1="3.733" x2="-0.520239" y2="8.17687" gradientUnits="userSpaceOnUse">
<stop stop-color="#FFC200" stop-opacity="0"/>
<stop offset="0.203" stop-color="#FFBB00" stop-opacity="0.203"/>
<stop offset="0.499" stop-color="#FFA700" stop-opacity="0.499"/>
<stop offset="0.852" stop-color="#FF8800" stop-opacity="0.852"/>
<stop offset="1" stop-color="#FF7800"/>
</linearGradient>
<linearGradient id="paint7_linear_604_7534" x1="44.9316" y1="2.04058" x2="44.9316" y2="17.205" gradientUnits="userSpaceOnUse">
<stop stop-color="#FFCF95"/>
<stop offset="0.427" stop-color="#FFC954"/>
<stop offset="1" stop-color="#FFC200"/>
</linearGradient>
<linearGradient id="paint8_linear_604_7534" x1="48.4938" y1="3.99613" x2="43.9096" y2="3.99613" gradientUnits="userSpaceOnUse">
<stop stop-color="#FFC200" stop-opacity="0"/>
<stop offset="0.203" stop-color="#FFBB00" stop-opacity="0.203"/>
<stop offset="0.499" stop-color="#FFA700" stop-opacity="0.499"/>
<stop offset="0.852" stop-color="#FF8800" stop-opacity="0.852"/>
<stop offset="1" stop-color="#FF7800"/>
</linearGradient>
<linearGradient id="paint9_linear_604_7534" x1="49.2769" y1="11.0195" x2="48.0629" y2="5.04094" gradientUnits="userSpaceOnUse">
<stop stop-color="#FFC200" stop-opacity="0"/>
<stop offset="0.203" stop-color="#FFBB00" stop-opacity="0.203"/>
<stop offset="0.499" stop-color="#FFA700" stop-opacity="0.499"/>
<stop offset="0.852" stop-color="#FF8800" stop-opacity="0.852"/>
<stop offset="1" stop-color="#FF7800"/>
</linearGradient>
<linearGradient id="paint10_linear_604_7534" x1="43.3902" y1="14.1615" x2="48.1451" y2="9.40669" gradientUnits="userSpaceOnUse">
<stop stop-color="#FFC200" stop-opacity="0"/>
<stop offset="0.203" stop-color="#FFBB00" stop-opacity="0.203"/>
<stop offset="0.499" stop-color="#FFA700" stop-opacity="0.499"/>
<stop offset="0.852" stop-color="#FF8800" stop-opacity="0.852"/>
<stop offset="1" stop-color="#FF7800"/>
</linearGradient>
<linearGradient id="paint11_linear_604_7534" x1="39.999" y1="8.14857" x2="43.5037" y2="11.0806" gradientUnits="userSpaceOnUse">
<stop stop-color="#FFC200" stop-opacity="0"/>
<stop offset="0.203" stop-color="#FFBB00" stop-opacity="0.203"/>
<stop offset="0.499" stop-color="#FFA700" stop-opacity="0.499"/>
<stop offset="0.852" stop-color="#FF8800" stop-opacity="0.852"/>
<stop offset="1" stop-color="#FF7800"/>
</linearGradient>
<linearGradient id="paint12_linear_604_7534" x1="42.6259" y1="3.31229" x2="41.2057" y2="7.34383" gradientUnits="userSpaceOnUse">
<stop stop-color="#FFC200" stop-opacity="0"/>
<stop offset="0.203" stop-color="#FFBB00" stop-opacity="0.203"/>
<stop offset="0.499" stop-color="#FFA700" stop-opacity="0.499"/>
<stop offset="0.852" stop-color="#FF8800" stop-opacity="0.852"/>
<stop offset="1" stop-color="#FF7800"/>
</linearGradient>
<linearGradient id="paint13_linear_604_7534" x1="47.9723" y1="3.733" x2="37.5384" y2="8.17687" gradientUnits="userSpaceOnUse">
<stop stop-color="#FFC200" stop-opacity="0"/>
<stop offset="0.203" stop-color="#FFBB00" stop-opacity="0.203"/>
<stop offset="0.499" stop-color="#FFA700" stop-opacity="0.499"/>
<stop offset="0.852" stop-color="#FF8800" stop-opacity="0.852"/>
<stop offset="1" stop-color="#FF7800"/>
</linearGradient>
<linearGradient id="paint14_linear_604_7534" x1="82.9911" y1="2.04058" x2="82.9911" y2="17.205" gradientUnits="userSpaceOnUse">
<stop stop-color="#FFCF95"/>
<stop offset="0.427" stop-color="#FFC954"/>
<stop offset="1" stop-color="#FFC200"/>
</linearGradient>
<linearGradient id="paint15_linear_604_7534" x1="86.5534" y1="3.99613" x2="81.9692" y2="3.99613" gradientUnits="userSpaceOnUse">
<stop stop-color="#FFC200" stop-opacity="0"/>
<stop offset="0.203" stop-color="#FFBB00" stop-opacity="0.203"/>
<stop offset="0.499" stop-color="#FFA700" stop-opacity="0.499"/>
<stop offset="0.852" stop-color="#FF8800" stop-opacity="0.852"/>
<stop offset="1" stop-color="#FF7800"/>
</linearGradient>
<linearGradient id="paint16_linear_604_7534" x1="87.3365" y1="11.0195" x2="86.1225" y2="5.04094" gradientUnits="userSpaceOnUse">
<stop stop-color="#FFC200" stop-opacity="0"/>
<stop offset="0.203" stop-color="#FFBB00" stop-opacity="0.203"/>
<stop offset="0.499" stop-color="#FFA700" stop-opacity="0.499"/>
<stop offset="0.852" stop-color="#FF8800" stop-opacity="0.852"/>
<stop offset="1" stop-color="#FF7800"/>
</linearGradient>
<linearGradient id="paint17_linear_604_7534" x1="81.4498" y1="14.1615" x2="86.2046" y2="9.40669" gradientUnits="userSpaceOnUse">
<stop stop-color="#FFC200" stop-opacity="0"/>
<stop offset="0.203" stop-color="#FFBB00" stop-opacity="0.203"/>
<stop offset="0.499" stop-color="#FFA700" stop-opacity="0.499"/>
<stop offset="0.852" stop-color="#FF8800" stop-opacity="0.852"/>
<stop offset="1" stop-color="#FF7800"/>
</linearGradient>
<linearGradient id="paint18_linear_604_7534" x1="78.0586" y1="8.14857" x2="81.5633" y2="11.0806" gradientUnits="userSpaceOnUse">
<stop stop-color="#FFC200" stop-opacity="0"/>
<stop offset="0.203" stop-color="#FFBB00" stop-opacity="0.203"/>
<stop offset="0.499" stop-color="#FFA700" stop-opacity="0.499"/>
<stop offset="0.852" stop-color="#FF8800" stop-opacity="0.852"/>
<stop offset="1" stop-color="#FF7800"/>
</linearGradient>
<linearGradient id="paint19_linear_604_7534" x1="80.6854" y1="3.31229" x2="79.2652" y2="7.34383" gradientUnits="userSpaceOnUse">
<stop stop-color="#FFC200" stop-opacity="0"/>
<stop offset="0.203" stop-color="#FFBB00" stop-opacity="0.203"/>
<stop offset="0.499" stop-color="#FFA700" stop-opacity="0.499"/>
<stop offset="0.852" stop-color="#FF8800" stop-opacity="0.852"/>
<stop offset="1" stop-color="#FF7800"/>
</linearGradient>
<linearGradient id="paint20_linear_604_7534" x1="86.0318" y1="3.733" x2="75.5979" y2="8.17687" gradientUnits="userSpaceOnUse">
<stop stop-color="#FFC200" stop-opacity="0"/>
<stop offset="0.203" stop-color="#FFBB00" stop-opacity="0.203"/>
<stop offset="0.499" stop-color="#FFA700" stop-opacity="0.499"/>
<stop offset="0.852" stop-color="#FF8800" stop-opacity="0.852"/>
<stop offset="1" stop-color="#FF7800"/>
</linearGradient>
<linearGradient id="paint21_linear_604_7534" x1="25.9023" y1="2.04058" x2="25.9023" y2="17.205" gradientUnits="userSpaceOnUse">
<stop stop-color="#FFCF95"/>
<stop offset="0.427" stop-color="#FFC954"/>
<stop offset="1" stop-color="#FFC200"/>
</linearGradient>
<linearGradient id="paint22_linear_604_7534" x1="29.4645" y1="3.99613" x2="24.8803" y2="3.99613" gradientUnits="userSpaceOnUse">
<stop stop-color="#FFC200" stop-opacity="0"/>
<stop offset="0.203" stop-color="#FFBB00" stop-opacity="0.203"/>
<stop offset="0.499" stop-color="#FFA700" stop-opacity="0.499"/>
<stop offset="0.852" stop-color="#FF8800" stop-opacity="0.852"/>
<stop offset="1" stop-color="#FF7800"/>
</linearGradient>
<linearGradient id="paint23_linear_604_7534" x1="30.2476" y1="11.0195" x2="29.0336" y2="5.04094" gradientUnits="userSpaceOnUse">
<stop stop-color="#FFC200" stop-opacity="0"/>
<stop offset="0.203" stop-color="#FFBB00" stop-opacity="0.203"/>
<stop offset="0.499" stop-color="#FFA700" stop-opacity="0.499"/>
<stop offset="0.852" stop-color="#FF8800" stop-opacity="0.852"/>
<stop offset="1" stop-color="#FF7800"/>
</linearGradient>
<linearGradient id="paint24_linear_604_7534" x1="24.361" y1="14.1615" x2="29.1158" y2="9.40669" gradientUnits="userSpaceOnUse">
<stop stop-color="#FFC200" stop-opacity="0"/>
<stop offset="0.203" stop-color="#FFBB00" stop-opacity="0.203"/>
<stop offset="0.499" stop-color="#FFA700" stop-opacity="0.499"/>
<stop offset="0.852" stop-color="#FF8800" stop-opacity="0.852"/>
<stop offset="1" stop-color="#FF7800"/>
</linearGradient>
<linearGradient id="paint25_linear_604_7534" x1="20.9697" y1="8.14857" x2="24.4744" y2="11.0806" gradientUnits="userSpaceOnUse">
<stop stop-color="#FFC200" stop-opacity="0"/>
<stop offset="0.203" stop-color="#FFBB00" stop-opacity="0.203"/>
<stop offset="0.499" stop-color="#FFA700" stop-opacity="0.499"/>
<stop offset="0.852" stop-color="#FF8800" stop-opacity="0.852"/>
<stop offset="1" stop-color="#FF7800"/>
</linearGradient>
<linearGradient id="paint26_linear_604_7534" x1="23.5975" y1="3.31229" x2="22.1773" y2="7.34383" gradientUnits="userSpaceOnUse">
<stop stop-color="#FFC200" stop-opacity="0"/>
<stop offset="0.203" stop-color="#FFBB00" stop-opacity="0.203"/>
<stop offset="0.499" stop-color="#FFA700" stop-opacity="0.499"/>
<stop offset="0.852" stop-color="#FF8800" stop-opacity="0.852"/>
<stop offset="1" stop-color="#FF7800"/>
</linearGradient>
<linearGradient id="paint27_linear_604_7534" x1="28.943" y1="3.733" x2="18.5091" y2="8.17687" gradientUnits="userSpaceOnUse">
<stop stop-color="#FFC200" stop-opacity="0"/>
<stop offset="0.203" stop-color="#FFBB00" stop-opacity="0.203"/>
<stop offset="0.499" stop-color="#FFA700" stop-opacity="0.499"/>
<stop offset="0.852" stop-color="#FF8800" stop-opacity="0.852"/>
<stop offset="1" stop-color="#FF7800"/>
</linearGradient>
<linearGradient id="paint28_linear_604_7534" x1="63.9618" y1="2.04058" x2="63.9618" y2="17.205" gradientUnits="userSpaceOnUse">
<stop stop-color="#FFCF95"/>
<stop offset="0.427" stop-color="#FFC954"/>
<stop offset="1" stop-color="#FFC200"/>
</linearGradient>
<linearGradient id="paint29_linear_604_7534" x1="67.5241" y1="3.99613" x2="62.9399" y2="3.99613" gradientUnits="userSpaceOnUse">
<stop stop-color="#FFC200" stop-opacity="0"/>
<stop offset="0.203" stop-color="#FFBB00" stop-opacity="0.203"/>
<stop offset="0.499" stop-color="#FFA700" stop-opacity="0.499"/>
<stop offset="0.852" stop-color="#FF8800" stop-opacity="0.852"/>
<stop offset="1" stop-color="#FF7800"/>
</linearGradient>
<linearGradient id="paint30_linear_604_7534" x1="68.3072" y1="11.0195" x2="67.0932" y2="5.04094" gradientUnits="userSpaceOnUse">
<stop stop-color="#FFC200" stop-opacity="0"/>
<stop offset="0.203" stop-color="#FFBB00" stop-opacity="0.203"/>
<stop offset="0.499" stop-color="#FFA700" stop-opacity="0.499"/>
<stop offset="0.852" stop-color="#FF8800" stop-opacity="0.852"/>
<stop offset="1" stop-color="#FF7800"/>
</linearGradient>
<linearGradient id="paint31_linear_604_7534" x1="62.4205" y1="14.1615" x2="67.1753" y2="9.40669" gradientUnits="userSpaceOnUse">
<stop stop-color="#FFC200" stop-opacity="0"/>
<stop offset="0.203" stop-color="#FFBB00" stop-opacity="0.203"/>
<stop offset="0.499" stop-color="#FFA700" stop-opacity="0.499"/>
<stop offset="0.852" stop-color="#FF8800" stop-opacity="0.852"/>
<stop offset="1" stop-color="#FF7800"/>
</linearGradient>
<linearGradient id="paint32_linear_604_7534" x1="59.0293" y1="8.14857" x2="62.534" y2="11.0806" gradientUnits="userSpaceOnUse">
<stop stop-color="#FFC200" stop-opacity="0"/>
<stop offset="0.203" stop-color="#FFBB00" stop-opacity="0.203"/>
<stop offset="0.499" stop-color="#FFA700" stop-opacity="0.499"/>
<stop offset="0.852" stop-color="#FF8800" stop-opacity="0.852"/>
<stop offset="1" stop-color="#FF7800"/>
</linearGradient>
<linearGradient id="paint33_linear_604_7534" x1="61.6571" y1="3.31229" x2="60.2369" y2="7.34383" gradientUnits="userSpaceOnUse">
<stop stop-color="#FFC200" stop-opacity="0"/>
<stop offset="0.203" stop-color="#FFBB00" stop-opacity="0.203"/>
<stop offset="0.499" stop-color="#FFA700" stop-opacity="0.499"/>
<stop offset="0.852" stop-color="#FF8800" stop-opacity="0.852"/>
<stop offset="1" stop-color="#FF7800"/>
</linearGradient>
<linearGradient id="paint34_linear_604_7534" x1="67.0026" y1="3.733" x2="56.5686" y2="8.17687" gradientUnits="userSpaceOnUse">
<stop stop-color="#FFC200" stop-opacity="0"/>
<stop offset="0.203" stop-color="#FFBB00" stop-opacity="0.203"/>
<stop offset="0.499" stop-color="#FFA700" stop-opacity="0.499"/>
<stop offset="0.852" stop-color="#FF8800" stop-opacity="0.852"/>
<stop offset="1" stop-color="#FF7800"/>
</linearGradient>
<clipPath id="clip0_604_7534">
<rect width="13.7435" height="13.7435" fill="white" transform="translate(0.000976562 0.201172)"/>
</clipPath>
<clipPath id="clip1_604_7534">
<rect width="13.7435" height="13.7435" fill="white" transform="translate(38.0596 0.201172)"/>
</clipPath>
<clipPath id="clip2_604_7534">
<rect width="13.7435" height="13.7435" fill="white" transform="translate(76.1191 0.201172)"/>
</clipPath>
<clipPath id="clip3_604_7534">
<rect width="13.7435" height="13.7435" fill="white" transform="translate(19.0303 0.201172)"/>
</clipPath>
<clipPath id="clip4_604_7534">
<rect width="13.7435" height="13.7435" fill="white" transform="translate(57.0898 0.201172)"/>
</clipPath>
</defs>
</svg>
