<svg width="16" height="15" viewBox="0 0 16 15" fill="none" xmlns="http://www.w3.org/2000/svg">
<path d="M15.9812 3.85393L15.3219 1.5472C15.075 0.678266 14.175 0 13.2719 0H2.72813C1.825 0 0.925 0.678266 0.678125 1.5472L0.01875 3.85393C0.00625 3.89456 0 3.93832 0 3.98208V5.48864C0 6.32319 0.521875 7.03897 1.25625 7.32653V13.2715C1.25625 14.2217 2.02813 14.9969 2.98125 14.9969H13.0219C13.9719 14.9969 14.7469 14.2217 14.7469 13.2715V7.32965C15.4812 7.04209 16.0031 6.32632 16.0031 5.49177V3.98521C16 3.94145 15.9937 3.89769 15.9812 3.85393ZM9.4125 14.0623H6.59062V10.8273H9.4125V14.0623ZM13.8062 13.2746C13.8062 13.7091 13.4531 14.0623 13.0188 14.0623H10.3469V10.3584C10.3469 10.099 10.1375 9.88956 9.87813 9.88956H6.11875C5.85938 9.88956 5.65 10.099 5.65 10.3584V14.0623H2.97813C2.54375 14.0623 2.19062 13.7091 2.19062 13.2746V7.45468C2.70625 7.39842 3.15938 7.14211 3.47813 6.76704C3.84063 7.19525 4.38125 7.46718 4.98438 7.46718C5.5875 7.46718 6.12812 7.19525 6.49062 6.76704C6.85313 7.19525 7.39375 7.46718 7.99687 7.46718C8.6 7.46718 9.14062 7.19525 9.50313 6.76704C9.86563 7.19525 10.4062 7.46718 11.0094 7.46718C11.6125 7.46718 12.1531 7.19525 12.5156 6.76704C12.8344 7.14211 13.2906 7.39842 13.8031 7.45468V13.2746H13.8062ZM15.0625 5.46989C15.0625 6.05126 14.5875 6.53886 14.0063 6.52949C13.5719 6.52323 13.2 6.24505 13.0531 5.8606C12.9688 5.6418 12.7656 5.49177 12.5344 5.49177H12.4937C12.2656 5.49177 12.0656 5.63867 11.9844 5.85434C11.8375 6.24818 11.4563 6.52949 11.0125 6.52949C10.5687 6.52949 10.1875 6.24818 10.0406 5.85434C9.95937 5.63867 9.7625 5.49177 9.53125 5.49177H9.48125C9.25313 5.49177 9.05313 5.63867 8.97188 5.85434C8.825 6.24818 8.44375 6.52949 8 6.52949C7.55625 6.52949 7.175 6.24818 7.02812 5.85434C6.94687 5.63867 6.75 5.49177 6.51875 5.49177H6.46875C6.24062 5.49177 6.04063 5.63867 5.95937 5.85434C5.8125 6.24818 5.43125 6.52949 4.9875 6.52949C4.54375 6.52949 4.1625 6.24818 4.01562 5.85434C3.93438 5.63867 3.7375 5.49177 3.50625 5.49177H3.45625C3.22812 5.49177 3.02813 5.63867 2.94688 5.85434C2.8 6.24818 2.41875 6.52949 1.975 6.52949C1.40313 6.52949 0.9375 6.06376 0.9375 5.49177V4.45405C0.9375 4.45405 0.884375 4.23526 1.09063 3.51636C1.15 3.30381 1.2 3.1319 1.24063 2.99437L1.25312 2.95061C1.25937 2.93499 1.2625 2.91623 1.26562 2.90373L1.27188 2.8881C1.27813 2.86622 1.28438 2.84747 1.2875 2.82871L1.31875 2.71619C1.32187 2.70681 1.325 2.69431 1.32812 2.68493L1.3375 2.65368C1.34062 2.63805 1.34688 2.62555 1.35 2.61304L1.36875 2.54741C1.36875 2.54428 1.36875 2.54428 1.36875 2.54115L1.58125 1.8035C1.70937 1.34403 2.24688 0.937695 2.72813 0.937695H13.2719C13.7531 0.937695 14.2906 1.34403 14.4219 1.8035L14.9094 3.51323C14.9094 3.51323 15.0625 3.81017 15.0625 4.45093V5.46989Z" fill="#A5A5A5"/>
</svg>
